<svg viewBox="0 0 512 512" fill="#F4A4CF" xmlns="http://www.w3.org/2000/svg">
<path d="M307.604 434.877C245.778 434.877 183.952 434.728 122.126 434.999C109.813 435.054 104.19 431.731 104.209 417.346C104.358 309.476 104.125 201.606 104.012 93.7295C104.012 92.1842 103.967 90.6356 104.051 89.0967C104.483 81.0862 108.654 76.8115 116.66 76.5308C122.577 76.3243 128.508 76.4695 134.435 76.4663C144.222 76.4631 154.033 76.876 163.798 76.3727C179.284 75.5727 182.299 82.0153 182.134 94.2973C181.744 123.384 182.008 152.478 182.008 181.571C182.008 187.75 181.921 193.931 182.047 200.106C182.26 210.507 185.837 214.059 196.012 214.198C198.072 214.227 200.138 214.275 202.194 214.162C209.519 213.762 213.49 209.91 213.68 202.441C213.909 193.437 213.758 184.42 213.761 175.409C213.764 148.894 213.761 122.375 213.764 95.8588C213.764 93.8005 213.722 91.739 213.793 89.6807C214.113 80.841 218.306 76.676 227.348 76.5018C234.815 76.3566 242.288 76.4631 249.758 76.4631C259.033 76.4631 268.307 76.3889 277.579 76.4921C287.528 76.6018 291.602 80.5926 291.628 90.6388C291.718 125.652 291.663 160.666 291.686 195.676C291.689 198.506 291.573 201.37 291.977 204.155C292.848 210.207 296.735 213.71 302.91 214.114C306.245 214.33 309.615 214.336 312.95 214.12C319.468 213.704 323.309 210 324.039 203.484C324.323 200.935 324.236 198.341 324.239 195.77C324.249 162.302 324.245 128.833 324.249 95.3652C324.249 93.3069 324.213 91.2453 324.268 89.1871C324.526 79.5118 328.762 75.192 338.624 75.1081C354.852 74.9694 371.083 74.9565 387.311 75.1145C397.086 75.2113 401.338 79.5666 401.36 89.429C401.441 124.701 401.389 159.969 401.406 195.241C401.406 198.07 401.283 200.932 401.648 203.722C402.506 210.284 406.341 213.785 412.953 214.136C416.291 214.314 419.661 214.336 422.996 214.111C429.116 213.694 432.948 210.123 433.771 204.009C434.146 201.222 434.039 198.357 434.039 195.528C434.055 162.576 434.049 129.621 434.052 96.6685C434.052 94.3521 434.007 92.0325 434.085 89.7194C434.388 80.6216 438.297 76.5857 447.449 76.5147C464.449 76.3824 481.455 76.3727 498.455 76.5211C507.429 76.5986 511.571 80.8732 511.961 89.8097C512.029 91.3518 511.987 92.8971 511.987 94.4425C511.887 201.541 511.784 308.64 511.674 415.739C511.671 418.314 511.781 420.907 511.509 423.456C510.777 430.357 506.916 434.154 500.043 434.767C497.486 434.996 494.894 434.867 492.318 434.867C430.74 434.874 369.172 434.874 307.604 434.874V434.877Z" />
<path d="M78.6476 309.1C78.6476 345.019 78.6509 380.939 78.6379 416.858C78.6379 419.697 78.7124 422.563 78.3949 425.376C77.6497 431.959 74.0892 435.534 67.4865 436.51C65.7078 436.772 63.8708 436.626 62.0792 436.824C52.4699 437.877 46.5735 434.231 42.1252 425.049C29.9597 399.952 16.7348 375.364 3.782 350.649C1.44285 346.183 0.0821357 341.716 0.108054 336.634C0.198769 318.288 0.153409 299.94 0.00113733 281.591C-0.0409802 276.538 1.08648 271.965 3.4159 267.485C16.994 241.351 30.5655 215.214 43.8715 188.943C46.6933 183.372 50.5228 180.711 56.6687 181.025C60.2746 181.21 63.9227 180.882 67.5026 181.245C74.2901 181.932 78.1875 186.003 78.8549 192.82C79.0817 195.124 78.9748 197.468 78.9748 199.792C78.9813 236.23 78.9781 272.665 78.9781 309.103C78.8679 309.1 78.7578 309.1 78.6476 309.1V309.1Z" />
</svg>
